<svg version="1.1" xmlns="http://www.w3.org/2000/svg" viewBox="0 0 417 490" width="417" height="490">
  <!-- svg-source:excalidraw -->
  
  <defs>
    <style>
      @font-face {
        font-family: "Virgil";
        src: url("https://excalidraw.com/Virgil.woff2");
      }
      @font-face {
        font-family: "Cascadia";
        src: url("https://excalidraw.com/Cascadia.woff2");
      }
    </style>
  </defs>
  <rect x="0" y="0" width="417" height="490" fill="#ffffff"></rect><g stroke-linecap="round" transform="translate(101 10) rotate(0 114 39.5)"><path d="M0.55 -1.66 C63.22 0.7, 128.08 2.43, 226.85 -0.31 M-0.65 -0.23 C72.31 0.32, 146.16 0.35, 227.27 -0.44 M227.15 1.69 C227.78 23.09, 228.22 48.18, 229.31 80.54 M228.64 0.03 C228.86 31.63, 228.78 61.77, 228.05 78.71 M228.29 80.51 C144.39 79.73, 58.3 79.97, 1.07 80.5 M227.62 78.6 C148.07 80.48, 69.03 80.81, -0.34 79.18 M-1.71 78.64 C-0.4 49.12, -0.91 19.34, -1.56 -0.01 M-0.96 79.41 C0.62 47.82, 0.89 15.88, -0.71 0.61" stroke="#000000" stroke-width="1" fill="none"></path></g><g transform="translate(181 37) rotate(0 28.5 11.5)"><text x="0" y="18" font-family="Helvetica, Segoe UI Emoji" font-size="20px" fill="#000000" text-anchor="start" style="white-space: pre;" direction="ltr">parent</text></g><g stroke-linecap="round"><g transform="translate(150 100) rotate(0 -41.52984774648212 62.15101220726501)"><path d="M-0.34 -0.02 C-14.5 20.76, -70.27 104.54, -84.2 125.38 M1.67 -1.08 C-12.63 19.27, -70.43 102.22, -84.73 123.46" stroke="#000000" stroke-width="1" fill="none"></path></g></g><g stroke-linecap="round"><g transform="translate(233 100) rotate(0 20.652686518956955 63.101106648440464)"><path d="M-0.32 0.7 C6.04 21.9, 32.63 105.35, 39.29 126.19 M1.71 0.02 C8.37 21, 35.47 104.06, 41.63 124.69" stroke="#000000" stroke-width="1" fill="none"></path></g></g><g stroke-linecap="round" transform="translate(10 241) rotate(0 77 36.5)"><path d="M0.6 1.83 C33.88 2.96, 66.66 3.3, 153.41 -0.59 M0.07 -0.83 C33.5 0.32, 68.81 0.33, 153.44 -0.21 M153.92 1.24 C152.68 19.53, 154.94 39.55, 153.5 73.74 M154.29 -0.6 C153.45 23.62, 153.51 45.32, 154.65 72.09 M155.97 71.08 C118.68 72.54, 80.38 73.45, -1.76 74.06 M153.93 72.18 C98.14 72.27, 40.47 72.92, -0.75 72.65 M1.64 74.89 C0.53 54.2, 1.57 36.65, -1.6 -1.74 M-0.88 72.08 C-1.07 54, -0.5 36.83, 0.82 0.51" stroke="#000000" stroke-width="1" fill="none"></path></g><g stroke-linecap="round" transform="translate(227 236) rotate(0 77 36.5)"><path d="M0.55 0.62 C48.28 1.08, 100.16 1.62, 153.84 1.13 M0.59 -0.03 C55.78 -0.85, 112.56 -1.11, 153.21 0.9 M155.52 -0.04 C154.37 29.75, 153.9 57.76, 155.75 72.74 M153.07 0.58 C155.17 14.61, 154.89 31.37, 153.82 72.67 M153.42 73.63 C119.39 74.73, 84.85 72.84, 0.97 74.67 M153.95 72.17 C97.44 72.76, 41.48 73.55, -0.99 72.59 M1.49 72.85 C-0.12 51.23, 0.83 33.82, 1.61 -0.93 M-0.16 73.94 C-0.78 48.68, -1.36 24.41, -0.41 -0.18" stroke="#000000" stroke-width="1" fill="none"></path></g><g transform="translate(36 265) rotate(0 46 11.5)"><text x="0" y="18" font-family="Helvetica, Segoe UI Emoji" font-size="20px" fill="#000000" text-anchor="start" style="white-space: pre;" direction="ltr">children[0]</text></g><g transform="translate(253 260) rotate(0 46 11.5)"><text x="0" y="18" font-family="Helvetica, Segoe UI Emoji" font-size="20px" fill="#000000" text-anchor="start" style="white-space: pre;" direction="ltr">children[1]</text></g><g stroke-linecap="round" transform="translate(209 207) rotate(0 99 68)"><path d="M75.47 0.82 C87.75 -2.39, 105.06 -0.78, 118.67 1.25 C132.29 3.27, 146.1 7.44, 157.16 12.96 C168.21 18.48, 178.31 26.21, 185 34.35 C191.69 42.48, 195.91 52.49, 197.28 61.76 C198.65 71.03, 197.63 81.13, 193.23 89.98 C188.83 98.83, 180.56 107.86, 170.88 114.84 C161.21 121.83, 148.08 128.55, 135.17 131.92 C122.27 135.28, 106.87 135.59, 93.45 135.04 C80.03 134.5, 66.54 132.88, 54.65 128.63 C42.76 124.38, 30.79 116.87, 22.14 109.53 C13.48 102.18, 6.1 93.53, 2.7 84.56 C-0.71 75.58, -0.97 64.96, 1.72 55.67 C4.4 46.38, 11.09 36.63, 18.83 28.83 C26.57 21.03, 37.11 13.56, 48.15 8.87 C59.19 4.19, 77.36 2.07, 85.07 0.7 C92.77 -0.68, 94.1 -0.39, 94.36 0.61 M137.58 5.42 C150.17 8.11, 162.79 15.02, 172.2 21.96 C181.62 28.89, 189.75 37.79, 194.08 47.03 C198.41 56.27, 199.85 68.02, 198.17 77.41 C196.49 86.8, 191.13 95.43, 184 103.37 C176.87 111.32, 167.12 119.67, 155.41 125.05 C143.7 130.43, 127.73 134.07, 113.73 135.65 C99.74 137.22, 84.48 137.31, 71.46 134.5 C58.44 131.7, 46.02 124.74, 35.6 118.8 C25.19 112.87, 14.81 107.33, 8.97 98.91 C3.14 90.5, 0.51 77.76, 0.59 68.31 C0.68 58.86, 4.09 50.59, 9.48 42.23 C14.88 33.86, 22.95 24.8, 32.96 18.13 C42.98 11.45, 56.66 5.21, 69.56 2.15 C82.47 -0.92, 99.03 -0.82, 110.4 -0.26 C121.78 0.3, 133.4 4.29, 137.8 5.51 C142.21 6.73, 137.28 6.13, 136.83 7.06" stroke="#c92a2a" stroke-width="1" fill="none"></path></g><g transform="translate(387 347) rotate(0 -125.5 66.5)" stroke="none" fill="#c92a2a"><path d="M 3.0255914397653267 6.158174577008408 Q 3.0255914397653267 6.158174577008408 2.6917541680672823 11.101007170243424 2.357916896369238 16.04383976347844 2.6917541680672823 11.101007170243424 3.0255914397653267 6.158174577008408 2.6917541680672823 11.101007170243424 2.357916896369238 16.04383976347844 1.7405604646157715 23.86223660922645 1.123204032862305 31.680633454974462 -0.2448089050184471 40.436261450296975 -1.6128218428991992 49.19188944561949 -3.5622429015188803 56.78019812492472 -5.511663960138561 64.36850680422997 -8.271014273950701 71.39125005553272 -11.03036458776284 78.41399330683548 -14.74391098889041 85.93554934680202 -18.45745739001798 93.45710538676855 -21.577522274459014 98.20612389409428 -24.69758715890005 102.95514240142 -28.34109390808473 107.20551963272042 -31.984600657269414 111.45589686402084 -35.21035937858412 114.26234445002214 -38.43611809989883 117.06879203602342 -41.94944959368975 119.13966802528445 -45.46278108748068 121.21054401454548 -49.84423987406244 123.33382277703956 -54.225698660644206 125.45710153953362 -58.00950433184617 126.76348422447919 -61.79331000304815 128.06986690942475 -65.47040701643648 129.1483678945679 -69.14750402982482 130.22686887971108 -73.6601968920442 131.25365604677376 -78.17288975426358 132.28044321383646 -84.2405406587657 133.11059821771101 -90.30819156326783 133.94075322158557 -95.92056914482569 134.0574031963362 -101.53294672638354 134.17405317108683 -107.52102757381832 133.53602381972644 -113.50910842125309 132.89799446836605 -118.03915567975596 131.3976469285801 -122.56920293825885 129.89729938879412 -125.149086450748 128.94680170426926 -127.72896996323713 127.99630401974443 -129.683859621814 127.68176403327142 -131.63874928039087 127.36722404679841 -133.76769173736406 126.79476221603386 -135.89663419433725 126.22230038526929 -138.52985505633427 124.79785512002204 -141.16307591833126 123.37340985477476 -144.07557053434817 121.23096769901787 -146.98806515036506 119.08852554326097 -150.78203802499712 116.42019819698447 -154.57601089962918 113.75187085070796 -158.6651614861227 111.33730166544325 -162.75431207261624 108.92273248017855 -166.51633421957027 106.61752921064497 -170.2783563665243 104.3123259411114 -174.26344983986746 101.45723397544869 -178.24854331321063 98.60214200978598 -182.14676645865484 95.73432908070653 -186.04498960409904 92.86651615162708 -189.65523378160995 90.07763514358913 -193.26547795912086 87.28875413555119 -196.73326898966414 84.22022249899823 -200.20106002020742 81.15169086244526 -202.9932219941069 79.01452613636252 -205.78538396800639 76.87736141027978 -207.8505812931592 74.98513113249707 -209.915778618312 73.09290085471437 -212.221438564625 70.82975018868714 -214.527098510938 68.56659952265991 -216.60221195590742 66.5018305264525 -218.67732540087684 64.43706153024509 -220.80688703147052 62.12012892872539 -222.9364486620642 59.803196327205704 -225.19162056527102 56.93418472381704 -227.44679246847787 54.06517312042838 -229.11840560343438 52.17801072813907 -230.79001873839087 50.290848335849766 -232.41565731354927 48.20587622064519 -234.04129588870768 46.12090410544061 -235.59097604153402 43.910543884186545 -237.14065619436033 41.70018366293248 -238.71382191023284 40.17677855326501 -240.28698762610534 38.65337344359753 -241.9857186927532 37.182076633605604 -243.68444975940105 35.71077982361367 -245.15908531886026 34.17403286194285 -246.63372087831948 32.63728590027202 -248.22991958876457 31.211952307314917 -249.8261182992097 29.786618714357814 -252.08619383975878 27.033544099097902 -254.34626938030786 24.280469483837994 -254.19277488359356 23.5588513565191 -254.03928038687926 22.83723322920021 -253.4909442374694 22.343653702226923 -252.94260808805953 21.85007417525364 -252.20887605776844 21.77306385177866 -251.47514402747734 21.696053528303683 -251.23160525132556 22.176929300609174 -250.9880664751738 22.657805072914666 -250.2367925765298 24.58438487768464 -249.4855186778858 26.51096468245462 -249.4279978001022 28.392688261569404 -249.37047692231857 30.274411840684188 -249.39214545589653 32.046484130544215 -249.41381398947448 33.81855642040424 -249.45911083983304 35.85534689354066 -249.50440769019158 37.89213736667708 -249.58388749633437 40.27633554886614 -249.66336730247716 42.66053373105521 -249.6895174307495 45.00602683258998 -249.71566755902188 47.351519934124745 -249.61130633942648 49.3429949886054 -249.50694511983107 51.33447004308605 -249.66283846570698 54.915356965522435 -249.8187318115829 58.49624388795881 -250.49278075137502 58.985969108369915 -251.16682969116715 59.47569432878102 -252.0000000007327 59.47569432853443 -252.8331703102983 59.475694328287844 -253.50721924980053 58.98596910747774 -254.18126818930278 58.49624388666765 -254.24847046628315 58.118946519061396 -254.31567274326355 57.74164915145514 -254.46816886919677 55.66313225029815 -254.62066499513 53.58461534914116 -254.4084908936627 49.90990971420973 -254.1963167921954 46.23520407927831 -254.0000396523368 43.05325254954893 -253.80376251247816 39.87130101981954 -253.80503568740835 37.200813137387215 -253.80630886233854 34.530325254954896 -253.87399450570075 32.088446131065886 -253.94168014906296 29.646567007176877 -253.84029953919517 27.752354398107304 -253.73891892932738 25.85814178903773 -252.63096435883233 24.864992121311992 -251.52300978833725 23.871842453586257 -249.82108659927587 23.671869606410816 -248.11916341021447 23.471896759235378 -245.67344889323948 23.400166333432082 -243.22773437626446 23.32843590762879 -240.61539842787568 23.360555363365684 -238.00306247948686 23.392674819102574 -235.7751226216236 23.56041232992435 -233.54718276376036 23.728149840746127 -231.4883940244764 24.038444013657497 -229.42960528519245 24.348738186568863 -227.14395034569935 24.651371222970347 -224.85829540620625 24.95400425937183 -223.2182366443193 26.349268498109364 -221.5781778824323 27.7445327368469 -221.60267971102957 28.9699015110598 -221.6271815396268 30.1952702852727 -222.6329275158451 30.89570158364631 -223.6386734920634 31.596132882019923 -224.79649696821338 31.194170482663182 -225.95432044436333 30.792208083306438 -226.30967759622297 29.619241644296846 -226.66503474808258 28.446275205287254 -225.92495865825208 27.469332856076278 -225.1848825684216 26.492390506865306 -223.9595137942087 26.51689233546255 -222.73414501999582 26.5413941640598 -222.0337137216222 27.54714014027809 -221.3332824232486 28.55288611649638 -221.73524482260532 29.710709592646353 -222.13720722196206 30.86853306879632 -223.31017366097166 31.223890220655946 -224.48314009998126 31.579247372515574 -225.4600824491922 30.839171282685093 -226.4370247984032 30.099095192854616 -227.3148024309179 29.702490410445947 -228.19258006343256 29.305885628037274 -230.67681532411837 29.014235190753034 -233.16105058480417 28.722584753468794 -235.58516861702023 28.664955340164024 -238.0092866492363 28.607325926859254 -240.61848495301422 28.63945063301974 -243.22768325679218 28.671575339180233 -245.30544858876107 28.622810203535135 -247.38321392072996 28.574045067890037 -249.13190413111937 28.449011242908682 -250.8805943415088 28.323977417927328 -250.5708377060907 27.624016646553468 -250.26108107067262 26.924055875179608 -250.15970046080483 28.285311441178234 -250.05831985093704 29.64656700717686 -250.12600549429922 32.08844613106585 -250.1936911376614 34.530325254954846 -250.19496431259154 37.20081313738713 -250.19623748752167 39.87130101981941 -249.9999603476628 43.05325254954846 -249.80368320780394 46.2352040792775 -249.59150910633196 49.909909714181225 -249.37933500486 53.58461534908494 -249.53183113112874 55.6631322507449 -249.68432725739746 57.74164915240486 -249.75152953449017 58.11894652018184 -249.8187318115829 58.49624388795881 -250.49278075137502 58.985969108369915 -251.16682969116715 59.47569432878102 -252.0000000007327 59.47569432853443 -252.8331703102983 59.475694328287844 -253.50721924980053 58.98596910747774 -254.18126818930278 58.49624388666765 -254.33716151419117 54.915356888853324 -254.49305483907955 51.334469891039 -254.38869331131397 49.34299445145748 -254.2843317835484 47.35151901187596 -254.31048084517465 45.006024280901656 -254.3366299068009 42.66052954992736 -254.41610552686072 40.27632265359028 -254.49558114692053 37.892115757253194 -254.5408612529472 35.855285916285034 -254.5861413589739 33.818456075316874 -254.58818800596754 31.38594813017107 -254.59023465296116 28.953440185025265 -254.49822590603827 27.038574356105418 -254.40621715911536 25.12370852718557 -254.3762432697116 24.70208900551178 -254.34626938030786 24.280469483837994 -254.19277488359356 23.5588513565191 -254.03928038687926 22.83723322920021 -253.4909442374694 22.343653702226923 -252.94260808805953 21.85007417525364 -252.20887605776844 21.77306385177866 -251.47514402747734 21.696053528303683 -249.22194469166232 24.206556564547096 -246.96874535584732 26.71705960079051 -245.25723954887795 28.297243480555892 -243.54573374190858 29.87742736032127 -242.28955123170988 31.36275028954038 -241.03336872151118 32.84807321875949 -239.3088275095273 34.465055972327306 -237.58428629754343 36.082038725895124 -235.96436289888914 37.911751870466624 -234.3444395002348 39.74146501503812 -232.87176319495393 41.94357781073997 -231.39908688967301 44.1456906064418 -229.93529963240238 46.210610559060854 -228.47151237513174 48.275530511679904 -226.7854221803721 50.23793639068509 -225.0993319856125 52.20034226969028 -222.92369056995489 54.97960375147963 -220.74804915429723 57.75886523326897 -218.65435750943305 60.0350249724613 -216.56066586456885 62.31118471165364 -214.49276620770672 64.36878507829434 -212.42486655084463 66.42638544493502 -210.1584740898316 68.6527122303002 -207.89208162881857 70.87903901566537 -205.9190693246672 72.69471854345232 -203.94605702051584 74.51039807123927 -201.0853804771986 76.70487256743507 -198.22470393388141 78.8993470636309 -194.83114089555795 81.90737231619217 -191.4375778572345 84.91539756875343 -187.85240575927838 87.6827441171724 -184.26723366132228 90.45009066559138 -180.3837917048985 93.30718796233961 -176.50034974847472 96.16428525908785 -172.60878281434591 98.95883419673586 -168.7172158802171 101.75338313438387 -164.9725963972832 104.04674347809316 -161.22797691434928 106.34010382180247 -157.0405609812911 108.81978908950927 -152.85314504823293 111.29947435721608 -149.0408518446581 113.95816482282564 -145.22855864108325 116.6168552884352 -142.46598894427265 118.53248438022256 -139.70341924746205 120.44811347200991 -136.74540558478787 122.03447539093914 -133.78739192211373 123.62083730986836 -131.70403898130817 124.13050707117509 -129.62068604050262 124.64017683248181 -128.00622126118108 124.92672996762343 -126.39175648185955 125.21328310276503 -123.99337631646986 126.13776511201007 -121.59499615108018 127.0622471212551 -117.37134204359162 128.50121934654297 -113.14768793610305 129.94019157183084 -107.37096331957204 130.55944128076578 -101.59423870304103 131.17869098970073 -96.14739442873574 131.07445720563268 -90.70055015443046 130.97022342156464 -84.78131363548002 130.1668433901645 -78.86207711652956 129.36346335876436 -74.42722028493866 128.3561103847283 -69.99236345334775 127.34875741069223 -66.37926169149493 126.29069783144035 -62.766159929642114 125.23263825218847 -59.139170499879484 123.99277867955388 -55.512181070116846 122.75291910691928 -51.25045945284019 120.6912288390927 -46.988737835563526 118.62953857126614 -43.67934771392076 116.71053843924459 -40.36995759227799 114.79153830722304 -37.30482985185793 112.13848140809401 -34.239702111437865 109.485424508965 -30.71966301368346 105.39778379974418 -27.199623915929052 101.31014309052335 -24.16550541261374 96.70708983576412 -21.131386909298428 92.10403658100489 -17.478199759400606 84.71730557263157 -13.825012609502785 77.33057456425827 -11.117428719213361 70.47016962220165 -8.409844828923939 63.609764680145034 -6.49152907113737 56.16548058601278 -4.573213313350801 48.72119649188051 -3.2202789856065532 40.096453393453025 -1.8673446578623052 31.471710295025538 -1.3509120271157715 23.76862276577355 -0.8344793963692381 16.06553523652156 -1.1331604180672823 11.422430329756576 -1.4318414397653267 6.779325422991592 -1.8302789397653267 3.544950422991592 -2.2287164397653267 0.310575422991592 -2.1071687842686297 -0.37408521830443364 -1.9856211287719328 -1.0587458596004593 -1.4848535820697624 -1.5412040344369093 -0.9840860353675921 -2.0236622092733594 -0.2953747798372771 -2.119635293012949 0.39333647569303787 -2.215608376752539 1.0069271488735307 -1.888437913411885 1.6205178220540235 -1.561267450071231 2.323054630909675 2.2984535634685885 Z"></path></g></svg>