<svg version="1.1" xmlns="http://www.w3.org/2000/svg" viewBox="0 0 248 340" width="248" height="340">
  <!-- svg-source:excalidraw -->
  
  <defs>
    <style>
      @font-face {
        font-family: "Virgil";
        src: url("https://excalidraw.com/Virgil.woff2");
      }
      @font-face {
        font-family: "Cascadia";
        src: url("https://excalidraw.com/Cascadia.woff2");
      }
    </style>
  </defs>
  <rect x="0" y="0" width="248" height="340" fill="#ffffff"></rect><g stroke-linecap="round" transform="translate(10 10) rotate(0 114 39.5)"><path d="M0.55 -1.66 C63.22 0.7, 128.08 2.43, 226.85 -0.31 M-0.65 -0.23 C72.31 0.32, 146.16 0.35, 227.27 -0.44 M227.15 1.69 C227.78 23.09, 228.22 48.18, 229.31 80.54 M228.64 0.03 C228.86 31.63, 228.78 61.77, 228.05 78.71 M228.29 80.51 C144.39 79.73, 58.3 79.97, 1.07 80.5 M227.62 78.6 C148.07 80.48, 69.03 80.81, -0.34 79.18 M-1.71 78.64 C-0.4 49.12, -0.91 19.34, -1.56 -0.01 M-0.96 79.41 C0.62 47.82, 0.89 15.88, -0.71 0.61" stroke="#000000" stroke-width="1" fill="none"></path></g><g transform="translate(90 37) rotate(0 28.5 11.5)"><text x="0" y="18" font-family="Helvetica, Segoe UI Emoji" font-size="20px" fill="#000000" text-anchor="start" style="white-space: pre;" direction="ltr">parent</text></g><g stroke-linecap="round" transform="translate(51 134) rotate(0 77 36.5)"><path d="M0.6 1.83 C33.88 2.96, 66.66 3.3, 153.41 -0.59 M0.07 -0.83 C33.5 0.32, 68.81 0.33, 153.44 -0.21 M153.92 1.24 C152.68 19.53, 154.94 39.55, 153.5 73.74 M154.29 -0.6 C153.45 23.62, 153.51 45.32, 154.65 72.09 M155.97 71.08 C118.68 72.54, 80.38 73.45, -1.76 74.06 M153.93 72.18 C98.14 72.27, 40.47 72.92, -0.75 72.65 M1.64 74.89 C0.53 54.2, 1.57 36.65, -1.6 -1.74 M-0.88 72.08 C-1.07 54, -0.5 36.83, 0.82 0.51" stroke="#000000" stroke-width="1" fill="none"></path></g><g stroke-linecap="round" transform="translate(56 257) rotate(0 77 36.5)"><path d="M0.55 0.62 C48.28 1.08, 100.16 1.62, 153.84 1.13 M0.59 -0.03 C55.78 -0.85, 112.56 -1.11, 153.21 0.9 M155.52 -0.04 C154.37 29.75, 153.9 57.76, 155.75 72.74 M153.07 0.58 C155.17 14.61, 154.89 31.37, 153.82 72.67 M153.42 73.63 C119.39 74.73, 84.85 72.84, 0.97 74.67 M153.95 72.17 C97.44 72.76, 41.48 73.55, -0.99 72.59 M1.49 72.85 C-0.12 51.23, 0.83 33.82, 1.61 -0.93 M-0.16 73.94 C-0.78 48.68, -1.36 24.41, -0.41 -0.18" stroke="#000000" stroke-width="1" fill="none"></path></g><g transform="translate(77 158) rotate(0 46 11.5)"><text x="0" y="18" font-family="Helvetica, Segoe UI Emoji" font-size="20px" fill="#000000" text-anchor="start" style="white-space: pre;" direction="ltr">children[0]</text></g><g transform="translate(86 286) rotate(0 45.5 8.720833333333331)"><text x="0" y="14.441666666666663" font-family="Helvetica, Segoe UI Emoji" font-size="15.166666666666664px" fill="#c92a2a" text-anchor="start" style="white-space: pre;" direction="ltr">ex-children[1]</text></g><g stroke-linecap="round"><g transform="translate(122 90) rotate(0 -0.4469159621698964 23.008881732961186)"><path d="M0.57 0.27 C0.41 7.67, -0.2 37.99, -0.34 45.41 M-0.58 -0.63 C-0.99 7.44, -1.37 38.95, -1.47 46.64" stroke="#000000" stroke-width="1" fill="none"></path></g></g><g stroke-linecap="round"><g transform="translate(122 206) rotate(0 0.6330566806392994 24.04972390129231)"><path d="M-0.37 0.61 C-0.29 8.35, 1 39.43, 1.22 47.13 M1.64 -0.11 C1.51 7.69, 0.63 40.28, 0.39 48.21" stroke="#000000" stroke-width="1" fill="none"></path></g></g></svg>