<svg version="1.1" xmlns="http://www.w3.org/2000/svg" viewBox="0 0 1313.8663985729218 576" width="1313.8663985729218" height="576">
  <!-- svg-source:excalidraw -->
  
  <defs>
    <style>
      @font-face {
        font-family: "Virgil";
        src: url("https://excalidraw.com/Virgil.woff2");
      }
      @font-face {
        font-family: "Cascadia";
        src: url("https://excalidraw.com/Cascadia.woff2");
      }
    </style>
  </defs>
  <rect x="0" y="0" width="1313.8663985729218" height="576" fill="#ffffff"></rect><g stroke-linecap="round" transform="translate(10 14) rotate(0 207.5 221)"><path d="M-0.53 -1.03 C140.25 -0.8, 280.25 -1.88, 414.29 -0.89 M0.2 -0.04 C150.06 -1.66, 299.8 -1.07, 415.32 0.2 M415.39 0.39 C414.49 96.04, 414.29 191.39, 415.42 441.59 M415.33 0.08 C416.11 111.66, 416.12 222.94, 414.76 441.63 M415.3 442.26 C273.37 441.71, 133.64 441.61, 0.44 441.46 M415.49 441.81 C275.96 442.28, 135.79 441.73, 0.03 441.5 M0.02 442.22 C0.53 302.14, 1.21 164.99, -0.02 0.62 M0.46 442.01 C2.3 319.42, 2.52 196.46, 0.22 0.21" stroke="#000000" stroke-width="1" fill="none"></path></g><g transform="translate(38 40) rotate(0 179 126.5)"><text x="0" y="18" font-family="Helvetica, Segoe UI Emoji" font-size="20px" fill="#000000" text-anchor="start" style="white-space: pre;" direction="ltr">&lt;html&gt;</text><text x="0" y="41" font-family="Helvetica, Segoe UI Emoji" font-size="20px" fill="#000000" text-anchor="start" style="white-space: pre;" direction="ltr">    &lt;head&gt;</text><text x="0" y="64" font-family="Helvetica, Segoe UI Emoji" font-size="20px" fill="#000000" text-anchor="start" style="white-space: pre;" direction="ltr">        &lt;title&gt;Hello!&lt;/title&gt;</text><text x="0" y="87" font-family="Helvetica, Segoe UI Emoji" font-size="20px" fill="#000000" text-anchor="start" style="white-space: pre;" direction="ltr">    &lt;/head&gt;</text><text x="0" y="110" font-family="Helvetica, Segoe UI Emoji" font-size="20px" fill="#000000" text-anchor="start" style="white-space: pre;" direction="ltr">    </text><text x="0" y="133" font-family="Helvetica, Segoe UI Emoji" font-size="20px" fill="#000000" text-anchor="start" style="white-space: pre;" direction="ltr">    &lt;body&gt;</text><text x="0" y="156" font-family="Helvetica, Segoe UI Emoji" font-size="20px" fill="#000000" text-anchor="start" style="white-space: pre;" direction="ltr">        &lt;h1&gt;My website&lt;/h1&gt;</text><text x="0" y="179" font-family="Helvetica, Segoe UI Emoji" font-size="20px" fill="#000000" text-anchor="start" style="white-space: pre;" direction="ltr">        &lt;p&gt;Lorem &lt;strong&gt;ipsum&lt;/strong&gt;</text><text x="0" y="202" font-family="Helvetica, Segoe UI Emoji" font-size="20px" fill="#000000" text-anchor="start" style="white-space: pre;" direction="ltr">        &lt;/p&gt;</text><text x="0" y="225" font-family="Helvetica, Segoe UI Emoji" font-size="20px" fill="#000000" text-anchor="start" style="white-space: pre;" direction="ltr">    &lt;/body&gt;</text><text x="0" y="248" font-family="Helvetica, Segoe UI Emoji" font-size="20px" fill="#000000" text-anchor="start" style="white-space: pre;" direction="ltr">&lt;/html&gt;</text></g><g stroke-linecap="round" transform="translate(28 35) rotate(0 186.5 141)"><path d="M-0.72 0.16 C102.51 0.3, 204.04 1.69, 372.4 -0.92 M0.36 -0.09 C140.19 -1.68, 280.8 -2.12, 373.54 0.44 M372.78 0.45 C374.65 57.24, 373.52 112.84, 372.31 282.44 M372.29 -0.68 C371.35 74.79, 372 151.15, 373.73 282.65 M373.49 281.01 C286.05 282.26, 199.48 282, -0.59 282.05 M372.76 282.22 C261.18 283.92, 149.74 283.83, -0.18 281.93 M0.45 282.16 C-1.28 195.34, -0.04 108.92, 0.99 1.1 M0.55 281.39 C-1.84 217.91, -2.11 153.65, -0.21 -0.61" stroke="#c92a2a" stroke-width="1" fill="none"></path></g><g stroke-linecap="round" transform="translate(52 65) rotate(0 109.5 35)"><path d="M-0.99 1.73 C55.86 -0.89, 114.02 -0.22, 219.66 -1.23 M0.22 0.45 C72.65 1.13, 144.8 -0.06, 219.58 -0.85 M219.02 -1.8 C218.02 25.47, 216.85 53.25, 219.94 70.93 M219.08 0.5 C218.68 17.21, 218.87 36.86, 218.9 70.38 M219.41 69.04 C145.39 69.16, 76.13 69.74, 0.99 69.68 M218.64 70.36 C173.21 69.86, 128.14 69.94, -0.01 70.71 M0.2 69.36 C0.16 55.11, 1.08 40.3, 0.53 -0.39 M0.48 70.84 C-0.29 55.32, 1.26 39.94, -0.39 0.29" stroke="#364fc7" stroke-width="1" fill="none"></path></g><g stroke-linecap="round" transform="translate(53 149) rotate(0 171.5 60)"><path d="M0.56 -1.09 C102.69 -0.11, 206.74 0.93, 344.09 -1.16 M-0.21 0.21 C126.47 0.3, 252.96 -0.05, 342.87 -0.57 M344.69 -1.65 C344.36 28.27, 343.59 52.85, 343.57 119.22 M342.54 0.46 C342.26 34.28, 341.29 69.65, 343.33 119.79 M343.41 119.01 C272.09 122.18, 203.7 120.83, -0.16 118.97 M343.32 119.65 C223.34 122.24, 103.07 122.09, -0.45 119.62 M0.51 121.91 C-0.96 72.01, 1.41 24.87, -0.56 -1.63 M0.21 119.61 C-1.45 85.9, -1.45 50.49, 0.37 0.78" stroke="#364fc7" stroke-width="1" fill="none"></path></g><g stroke-linecap="round" transform="translate(658 15) rotate(0 102.5 34.5)"><path d="M-1.4 -0.44 C49.52 -1.01, 103.1 0.42, 204.88 0.45 M0.75 -0.43 C80.81 0.1, 162.05 1.43, 204.98 0.19 M203.73 0.9 C205.3 19.57, 204.04 36.73, 203.67 70.77 M205.34 0.3 C204.62 19.22, 203.87 37.86, 204.33 69.35 M204.68 67.82 C158.24 67.64, 113.02 68.2, -0.01 69.23 M204.77 68.82 C127.15 68.57, 48.5 69.15, -0.51 69.89 M-0.65 69.33 C-1.07 50.63, -1.66 33.67, -0.79 -1.02 M-0.47 69.39 C0.13 52.93, 0.25 37.19, -0.13 0.28" stroke="#c92a2a" stroke-width="1" fill="none"></path></g><g stroke-linecap="round" transform="translate(481 142) rotate(0 89 38)"><path d="M-0.23 -1.26 C50.6 1.32, 100.67 2.95, 176.75 -0.68 M0.22 -0.23 C49.7 -1.16, 98.67 -0.95, 178.39 0.91 M177.85 -1.4 C179.24 19.52, 177.1 39.2, 176.83 76.73 M177.7 -0.15 C178.02 19.07, 178.57 37.54, 177.8 76.63 M178.3 76.41 C112.99 76.64, 50.05 75.38, 0.71 77.11 M178.53 76.82 C140.32 74.32, 102.01 74.82, 0.28 75.16 M-0.4 77.08 C-0.78 57.23, -2.05 36.69, -0.04 0.07 M0.47 75.41 C0.03 47.93, -0.05 18.32, 0.08 -0.41" stroke="#364fc7" stroke-width="1" fill="none"></path></g><g stroke-linecap="round" transform="translate(843 142) rotate(0 89 38)"><path d="M0.56 -1.69 C50.27 1.48, 102.66 0.3, 176.86 0.3 M1 0.2 C57.39 -0.92, 113.18 -0.72, 177.42 0.53 M176.07 -0.31 C178.42 27.31, 177.28 58.63, 179.56 75.6 M177.1 0.9 C177.77 26.94, 178.56 54.3, 178.36 76.47 M178.66 75.07 C135.22 76.15, 93.36 78.01, 0.58 77.96 M177.54 76.67 C120.98 76.69, 66.27 76.1, 0.93 75.55 M0.18 77.35 C-1.67 47.68, 1.26 20.34, 1.57 1.2 M-0.67 75.36 C1.15 46.93, 0.75 16.96, -0.08 -0.3" stroke="#364fc7" stroke-width="1" fill="none"></path></g><g transform="translate(538 166) rotate(0 22.5 11.5)"><text x="0" y="18" font-family="Helvetica, Segoe UI Emoji" font-size="20px" fill="#364fc7" text-anchor="start" style="white-space: pre;" direction="ltr">head</text></g><g transform="translate(898 165) rotate(0 21.5 11.5)"><text x="0" y="18" font-family="Helvetica, Segoe UI Emoji" font-size="20px" fill="#364fc7" text-anchor="start" style="white-space: pre;" direction="ltr">body</text></g><g transform="translate(715 35) rotate(0 44 11.5)"><text x="0" y="18" font-family="Helvetica, Segoe UI Emoji" font-size="20px" fill="#c92a2a" text-anchor="start" style="white-space: pre;" direction="ltr">document</text></g><g stroke-linecap="round" transform="translate(80 86) rotate(0 85 11.5)"><path d="M0.13 -0.77 C51.52 -2.33, 104.05 -1.38, 168.08 -0.55 M-0.44 -0.56 C38.72 0.74, 79.61 0.2, 169.45 0.72 M168.08 0.98 C169.39 7.91, 168.34 14.46, 171.88 21.02 M169.59 0.45 C169.22 6.81, 170.83 11.94, 169.24 23.53 M170.76 23.69 C119.48 22.44, 70.86 24.44, -0.18 22.33 M169.83 22.91 C134.42 24.45, 98.52 24.7, 0.75 23.71 M1 24.14 C0.41 18.73, 2.13 11.21, -0.7 -1.7 M-0.42 23.9 C0.74 14.77, -0.71 5.09, 0.7 0.8" stroke="#5c940d" stroke-width="1" fill="none"></path></g><g stroke-linecap="round" transform="translate(82 177) rotate(0 102 10.5)"><path d="M1.29 0.19 C68.96 -0.68, 140.38 -1.13, 204.66 0.68 M-0.83 0.36 C68.17 0.78, 135.73 1.23, 204.56 -0.15 M205.98 1.28 C205.63 7.54, 203.36 11.02, 204.52 22 M205 0.12 C203.68 6.65, 204.84 15.89, 204.61 20.58 M203.11 20.3 C125.64 23.39, 45.09 21.26, -0.07 20.37 M203.27 21.17 C148.43 22.08, 93.14 23.18, 0.55 21.8 M-1.55 20.58 C1.58 15.04, 0.15 6.88, -0.09 0.94 M0.92 21.04 C0.49 13.82, -1.07 6.33, -0.03 0.52" stroke="#5c940d" stroke-width="1" fill="none"></path></g><g stroke-linecap="round" transform="translate(79 206) rotate(0 159 20)"><path d="M0.03 -1.03 C126.21 0.26, 252.28 0.83, 318.01 -0.79 M0.51 0.12 C122.08 -0.05, 244.11 0.8, 318.31 0.55 M319.31 0.07 C316.55 9.93, 318.3 21.85, 317.8 41.9 M318.31 -0.31 C317.26 10.72, 319.06 21.25, 317.31 40.76 M317.31 40.85 C239.58 39.31, 164.03 39.88, 1.37 39.41 M318.45 40.16 C191.3 39.62, 64.39 39.89, -0.11 39.52 M1.02 38.35 C-0.81 28.5, 0.41 17.04, -0.25 -0.72 M-0.47 40.27 C-0.45 28.79, 0.67 19.18, 0.32 0.92" stroke="#5c940d" stroke-width="1" fill="none"></path></g><g stroke-linecap="round"><g transform="translate(585 145) rotate(0 45.772197566553984 -29.651264874264612)"><path d="M0.58 -0.37 C15.72 -10.08, 75.82 -49.47, 90.96 -58.93" stroke="#000000" stroke-width="1.5" fill="none" stroke-dasharray="8 9"></path></g></g><g stroke-linecap="round"><g transform="translate(810 82) rotate(0 46.680952153140765 32.774832771029324)"><path d="M1.19 0.51 C16.5 11.49, 78.01 54, 93.01 64.88 M0.35 -0.27 C15.5 10.9, 77.03 54.62, 92.59 65.82" stroke="#5c940d" stroke-width="1" fill="none"></path></g></g><g stroke-linecap="round" transform="translate(478.30713176727295 244) rotate(0 90 34)"><path d="M-0.82 -0.19 C45.87 -0.71, 88.83 -2.39, 178.26 0.01 M-0.1 0.2 C37.03 0.07, 73.76 0.56, 179.19 0.41 M181.9 1.98 C179.7 22.77, 179.28 45.36, 180.6 68.41 M179.47 0.94 C180.43 24.6, 180.79 49.24, 180.83 67.78 M178.11 69.54 C127.65 66.51, 73.92 67.2, 1.48 68.76 M179.88 68.68 C134.45 66.23, 87.4 67.78, -0.03 67.93 M1.39 69.71 C-0.19 42.52, -0.63 17.14, -0.4 -1.17 M-0.35 68.44 C-0.24 52.22, 1.07 34.84, 0.8 -0.36" stroke="#5c940d" stroke-width="1" fill="none"></path></g><g stroke-linecap="round" transform="translate(484.30713176727295 342) rotate(0 86 33.5)"><path d="M106.65 0.81 C119.38 1.6, 133.77 4.86, 143.88 8.35 C154 11.83, 162.68 16.61, 167.33 21.74 C171.99 26.87, 173.81 33.76, 171.79 39.14 C169.78 44.52, 163.31 49.83, 155.24 54.01 C147.17 58.18, 135.24 62.2, 123.37 64.2 C111.5 66.21, 97.29 66.23, 84.02 66.03 C70.74 65.84, 55.59 65.48, 43.72 63.02 C31.84 60.57, 20.16 55.88, 12.77 51.32 C5.38 46.77, 0.29 40.89, -0.63 35.68 C-1.55 30.47, 1.61 24.84, 7.25 20.07 C12.9 15.3, 22.63 10.37, 33.26 7.05 C43.88 3.72, 57.3 1.02, 71 0.12 C84.71 -0.77, 107.03 1.1, 115.5 1.68 C123.96 2.25, 122.35 2.87, 121.78 3.58" stroke="#5c940d" stroke-width="1.5" fill="none" stroke-dasharray="8 9"></path></g><g transform="translate(531.307131767273 258) rotate(0 15.5 11.5)"><text x="0" y="18" font-family="Helvetica, Segoe UI Emoji" font-size="20px" fill="#5c940d" text-anchor="start" style="white-space: pre;" direction="ltr">title</text></g><g transform="translate(544.807131767273 364) rotate(0 25.5 11.5)"><text x="25.5" y="18" font-family="Helvetica, Segoe UI Emoji" font-size="20px" fill="#5c940d" text-anchor="middle" style="white-space: pre;" direction="ltr">Hello!</text></g><g stroke-linecap="round"><g transform="translate(566.307131767273 214) rotate(0 0.2676256876438856 14.459568258002406)"><path d="M-0.54 -0.73 C-0.5 4.15, 0.96 24.34, 1.08 29.65" stroke="#000000" stroke-width="1.5" fill="none" stroke-dasharray="8 9"></path></g></g><g stroke-linecap="round"><g transform="translate(568.307131767273 306) rotate(0 -0.5711090499669353 17.809815509989846)"><path d="M-0.37 0.34 C-0.44 6.12, -0.82 29.22, -0.76 35.28" stroke="#000000" stroke-width="1.5" fill="none" stroke-dasharray="8 9"></path></g></g><g stroke-linecap="round" transform="translate(780.307131767273 238) rotate(0 82 35.5)"><path d="M-0.1 -1.06 C51.86 -2.17, 107.79 0.17, 162.79 0.36 M-0.24 -0.92 C58.15 -1.43, 115.79 -0.28, 163.8 0.47 M165.51 1.28 C164.82 19.55, 164.16 36.91, 164.35 69.84 M164.17 -0.83 C164.04 19.81, 162.55 41.23, 163.06 71.1 M164.69 71.42 C122.92 71.34, 79.13 73.36, 1.01 70.65 M163.29 71.63 C118.99 69.65, 73.13 70.26, 0.29 70.81 M-0.28 70.59 C1.73 57.14, -1.88 40.82, 0.36 -0.56 M-0.97 71 C-0.12 47.16, -1.22 25.3, -0.54 0" stroke="#5c940d" stroke-width="1" fill="none"></path></g><g stroke-linecap="round" transform="translate(975.307131767273 239) rotate(0 82 35.5)"><path d="M1.13 -0.15 C53.64 1.53, 109.23 -0.69, 163.54 -1.05 M0.43 -0.12 C36.92 -0.55, 74.13 -1.23, 163.01 0.32 M165.96 0.43 C162.25 22.99, 164.26 48.62, 164.53 71.92 M164.21 -0.67 C162.42 18.29, 162.78 35.32, 164.79 71.73 M164.52 72.09 C104.75 70.26, 43.59 69.41, 1.38 69.47 M164.56 71.32 C110.97 70.39, 58.03 69.78, -0.88 70.63 M0.58 69.39 C-0.61 48.98, -2.53 31.44, 0.64 -0.86 M-0.97 71.56 C0.89 51.22, -0.86 31.21, -0.65 -0.68" stroke="#5c940d" stroke-width="1" fill="none"></path></g><g stroke-linecap="round"><g transform="translate(900.307131767273 218) rotate(0 -8.840816726162984 8.535811384394748)"><path d="M-0.76 0.83 C-3.54 3.63, -14.32 13.77, -16.92 16.24" stroke="#000000" stroke-width="1.5" fill="none" stroke-dasharray="8 9"></path></g></g><g stroke-linecap="round"><g transform="translate(1000.307131767273 218) rotate(0 7.834221692755818 8.915331016108382)"><path d="M-0.89 -1.06 C1.89 2.28, 13.43 15.48, 16.56 18.89" stroke="#000000" stroke-width="1.5" fill="none" stroke-dasharray="8 9"></path></g></g><g stroke-linecap="round" transform="translate(1099.307131767273 348) rotate(0 81 35.5)"><path d="M1.12 1.53 C45.98 -0.4, 91.48 0.28, 160.64 -1.55 M0.78 0.31 C61.78 1.22, 121.78 1.33, 161.72 -0.01 M161.3 0.53 C161.7 16.99, 160.11 33.42, 160.56 69.68 M162.11 0.74 C163.06 21.78, 161.93 45.04, 161.3 70.34 M163.22 72.63 C99.31 69.78, 39.33 69.58, 1.57 70.4 M161.18 70.89 C99.65 72.61, 35.2 72.48, -0.76 70.9 M0.99 70.38 C0.54 52.92, 1.22 39.82, 0.97 0.7 M0.98 71.1 C0.89 47.21, -0.32 24.97, 0.66 0.8" stroke="#0b7285" stroke-width="1" fill="none"></path></g><g stroke-linecap="round"><g transform="translate(853.307131767273 311) rotate(0 1.6584322195500363 17.4816698987037)"><path d="M0.68 0.73 C1.02 6.63, 2.26 28.36, 2.64 34.24" stroke="#000000" stroke-width="1.5" fill="none" stroke-dasharray="8 9"></path></g></g><g stroke-linecap="round"><g transform="translate(1165.307131767273 423) rotate(0 2.1052952270954393 24.105907126143563)"><path d="M0.55 0.28 C1.08 8.39, 3.32 40.01, 3.66 47.93" stroke="#000000" stroke-width="1.5" fill="none" stroke-dasharray="8 9"></path></g></g><g transform="translate(849.307131767273 262) rotate(0 13 11.5)"><text x="13" y="18" font-family="Helvetica, Segoe UI Emoji" font-size="20px" fill="#5c940d" text-anchor="middle" style="white-space: pre;" direction="ltr">H1</text></g><g transform="translate(1051.807131767273 263) rotate(0 5.5 11.5)"><text x="5.5" y="18" font-family="Helvetica, Segoe UI Emoji" font-size="20px" fill="#5c940d" text-anchor="middle" style="white-space: pre;" direction="ltr">p</text></g><g stroke-linecap="round" transform="translate(798.307131767273 337) rotate(0 62 30.5)"><path d="M86.02 3.11 C95.9 4.47, 105.98 7.99, 112.31 12.17 C118.64 16.35, 123.45 22.69, 123.99 28.18 C124.53 33.66, 121.02 40.18, 115.56 45.1 C110.09 50.02, 100.73 55, 91.2 57.71 C81.68 60.41, 69.47 61.57, 58.41 61.31 C47.35 61.05, 34.01 59.38, 24.85 56.16 C15.69 52.94, 7.5 47.24, 3.47 42 C-0.56 36.77, -1.52 30.19, 0.66 24.76 C2.83 19.33, 8.99 13.27, 16.51 9.44 C24.03 5.61, 35.25 3.19, 45.78 1.78 C56.3 0.37, 72.4 0.89, 79.65 0.98 C86.9 1.08, 87.21 1.75, 89.27 2.33 C91.33 2.91, 92.55 3.85, 92.01 4.44" stroke="#5c940d" stroke-width="1.5" fill="none" stroke-dasharray="8 9"></path></g><g stroke-linecap="round" transform="translate(967.307131767273 348) rotate(0 57.5 34.5)"><path d="M80.73 3.42 C90.08 5.53, 101.08 11.36, 106.77 16.63 C112.45 21.91, 115.03 28.8, 114.87 35.06 C114.71 41.33, 111.56 48.99, 105.8 54.24 C100.04 59.48, 89.88 64.18, 80.33 66.53 C70.78 68.88, 58.5 69.49, 48.52 68.34 C38.54 67.18, 28 63.76, 20.44 59.63 C12.88 55.49, 6.07 49.51, 3.14 43.52 C0.22 37.54, 0.14 29.62, 2.89 23.72 C5.63 17.82, 11.73 11.89, 19.61 8.13 C27.49 4.37, 38.62 1.59, 50.16 1.17 C61.71 0.74, 81.42 4.15, 88.9 5.56 C96.37 6.98, 95.44 9.11, 94.99 9.64" stroke="#5c940d" stroke-width="1.5" fill="none" stroke-dasharray="8 9"></path></g><g transform="translate(806.307131767273 358) rotate(0 50 11.5)"><text x="0" y="18" font-family="Helvetica, Segoe UI Emoji" font-size="20px" fill="#5c940d" text-anchor="start" style="white-space: pre;" direction="ltr">My website</text></g><g transform="translate(989.307131767273 373) rotate(0 28.5 11.5)"><text x="0" y="18" font-family="Helvetica, Segoe UI Emoji" font-size="20px" fill="#5c940d" text-anchor="start" style="white-space: pre;" direction="ltr">Lorem</text></g><g stroke-linecap="round"><g transform="translate(1030.307131767273 306) rotate(0 -8.39486469216638 20.186444433405995)"><path d="M-0.67 0.58 C-3.54 7.37, -13.2 33.18, -16.12 39.79" stroke="#000000" stroke-width="1.5" fill="none" stroke-dasharray="8 9"></path></g></g><g stroke-linecap="round"><g transform="translate(1085.307131767273 306) rotate(0 27.44300574846568 20.93048418574037)"><path d="M-0.59 0.07 C8.78 6.95, 46.06 34.8, 55.48 41.8" stroke="#000000" stroke-width="1.5" fill="none" stroke-dasharray="8 9"></path></g></g><g transform="translate(1142.307131767273 371) rotate(0 28 11.5)"><text x="0" y="18" font-family="Helvetica, Segoe UI Emoji" font-size="20px" fill="#0b7285" text-anchor="start" style="white-space: pre;" direction="ltr">strong</text></g><g stroke-linecap="round" transform="translate(1099.307131767273 461) rotate(0 77 36)"><path d="M92.95 0.8 C104.85 1.5, 119.64 5.62, 129.11 9.65 C138.59 13.67, 145.86 19.64, 149.79 24.94 C153.73 30.24, 154.81 35.69, 152.72 41.45 C150.62 47.2, 145.06 54.84, 137.23 59.47 C129.4 64.09, 117.44 67.11, 105.74 69.19 C94.03 71.28, 79.39 72.8, 67 71.97 C54.61 71.14, 41.44 67.57, 31.41 64.2 C21.38 60.83, 12.13 56.99, 6.81 51.73 C1.49 46.46, -1.52 38.49, -0.49 32.61 C0.54 26.72, 5.79 21.13, 13 16.43 C20.21 11.74, 31.69 7.07, 42.77 4.42 C53.85 1.78, 70.11 0.88, 79.47 0.55 C88.83 0.21, 94.65 1.81, 98.92 2.41 C103.19 3.01, 105.3 3.83, 105.08 4.14" stroke="#0b7285" stroke-width="1.5" fill="none" stroke-dasharray="8 9"></path></g><g transform="translate(1141.307131767273 490) rotate(0 26.5 11.5)"><text x="0" y="18" font-family="Helvetica, Segoe UI Emoji" font-size="20px" fill="#0b7285" text-anchor="start" style="white-space: pre;" direction="ltr">ipsum</text></g><g stroke-linecap="round" transform="translate(446.86639857292175 10) rotate(0 428.5 278)"><path d="M-0.13 -0.72 C318.45 2.1, 635.79 1.64, 856.54 0.18 M-0.26 -0.15 C188.17 -0.49, 377.04 -0.91, 856.8 0.15 M857.16 -0.33 C858.12 218.86, 859.35 437.9, 856.68 555.54 M856.64 -0.05 C856.78 143.6, 856.61 286.42, 857.12 556.39 M857.78 556.03 C667.78 555.21, 479.24 554.76, -0.28 556.76 M857.3 555.87 C669.81 559.09, 482.65 559.51, 0 555.86 M0.03 555.3 C-0.82 373.26, -1.73 189.3, -0.46 0.32 M0.09 555.7 C-1.97 379.71, -2.08 202.48, 0.25 0.17" stroke="#000000" stroke-width="1" fill="none"></path></g></svg>